PathFileType	4	(X/Y/Z)	C:/Users/opensim2020/Desktop/walking_exp_matlab/subject03_walking13_straight_03.trc																																																																																																																																								
DataRate	CameraRate	NumFrames	NumMarkers	Units	OrigDataRate	OrigDataStartFrame	OrigNumFrames																																																																																																																																				
100	100	4	46	mm	100	1705	209																																																																																																																																				
Frame#	Time	LFHD			RFHD			LBHD			RBHD			C7			T10			CLAV			STRN			RBAK			LSHO			LUPA			LELB			LFRM			LWRA			LWRB			LFIN			RSHO			RUPA			RELB			RFRM			RWRA			RWRB			RFIN			LASI			RASI			LPSI			RPSI			LTHI			LKNE			LTIB			LANK			LHEE			LTOE			RTHI			RKNE			RTIB			RANK			RHEE			RTOE			*39			*40			*41			*42			*43			*44			*45		
		X1	Y1	Z1	X2	Y2	Z2	X3	Y3	Z3	X4	Y4	Z4	X5	Y5	Z5	X6	Y6	Z6	X7	Y7	Z7	X8	Y8	Z8	X9	Y9	Z9	X10	Y10	Z10	X11	Y11	Z11	X12	Y12	Z12	X13	Y13	Z13	X14	Y14	Z14	X15	Y15	Z15	X16	Y16	Z16	X17	Y17	Z17	X18	Y18	Z18	X19	Y19	Z19	X20	Y20	Z20	X21	Y21	Z21	X22	Y22	Z22	X23	Y23	Z23	X24	Y24	Z24	X25	Y25	Z25	X26	Y26	Z26	X27	Y27	Z27	X28	Y28	Z28	X29	Y29	Z29	X30	Y30	Z30	X31	Y31	Z31	X32	Y32	Z32	X33	Y33	Z33	X34	Y34	Z34	X35	Y35	Z35	X36	Y36	Z36	X37	Y37	Z37	X38	Y38	Z38	X39	Y39	Z39	X40	Y40	Z40	X41	Y41	Z41	X42	Y42	Z42	X43	Y43	Z43	X44	Y44	Z44	X45	Y45	Z45	X46	Y46	Z46
																																																																																																																																											
79	0.78	-286.53085	1627.52795	-1050.19067	-308.61179	1625.67346	-918.87396	-405.25488	1566.72034	-1068.24524	-422.22638	1564.62207	-938.3175	-429.04086	1415.07275	-1021.07599	-475.05096	1107.07129	-1021.30719	-308.01889	1337.97693	-1004.42139	-267.56717	1171.01904	-1006.3147	-495.92117	1243.91382	-930.81494	-331.34302	1375.09863	-1164.22131	-328.77005	1177.49719	-1235.42151	-321.92535	1054.20837	-1245.23682	-300.21124	925.15125	-1238.61584	-295.42163	806.57947	-1205.95264	-301.07758	812.80841	-1261.22974	-291.75513	729.23145	-1248.80933	-373.22543	1361.8623	-851.39532	-380.46521	1140.1261	-778.73608	-363.1553	1028.06238	-765.99707	-339.10239	893.18506	-765.19098	-301.30478	800.66364	-801.79285	-334.04028	792.56537	-759.53162	-305.88489	723.55182	-770.35022	-310.27521	939.57159	-1124.50623	-331.24796	933.83594	-889.93524	-474.66354	968.65503	-1088.26636	-485.52533	968.4718	-939.17474	-361.93585	638.08221	-1170.64233	-360.23209	462.87448	-1126.83826	-427.80225	273.7688	-1136.85278	-472.89926	66.85147	-1098.50366	-518.17932	32.49662	-1066.61743	-325.18161	29.67593	-1064.78137	-329.24561	637.49829	-852.11621	-261.02869	471.34485	-876.72015	-381.20319	324.12466	-886.29553	-518.41248	161.30231	-939.04791	-570.54156	159.32826	-994.70703	-427.17313	53.28123	-951.54639	-384.16562	1671.47998	-1012.53741	NaN	NaN	NaN	NaN	NaN	NaN	NaN	NaN	NaN	NaN	NaN	NaN	NaN	NaN	NaN	NaN	NaN	NaN
80	0.79	-273.1619	1627.40137	-1049.7926	-295.59924	1625.27002	-918.3335	-391.88889	1566.65808	-1068.18823	-409.14642	1564.43921	-938.27173	-416.03864	1414.7207	-1021.08423	-461.73758	1106.87	-1022.17004	-294.88977	1337.69507	-1004.25488	-254.35748	1170.82446	-1006.4566	-482.49701	1243.55847	-931.57233	-318.06226	1375.31274	-1163.91638	-312.94708	1178.2511	-1235.19995	-303.04019	1055.08508	-1244.69849	-277.86508	926.95874	-1237.15356	-270.44867	808.71857	-1203.71619	-275.51566	814.46643	-1259.18994	-261.2338	732.28583	-1246.37036	-360.66745	1361.50171	-851.34131	-370.45981	1139.60156	-779.20221	-354.79892	1027.30334	-766.54388	-333.46597	891.97467	-765.65265	-296.80258	798.82269	-801.34851	-330.64276	791.20648	-759.64728	-303.96014	721.52814	-770.1438	-297.31787	938.67078	-1125.24902	-317.88211	933.8913	-890.56885	-461.39731	968.30341	-1088.59375	-472.12198	968.54041	-939.61249	-354.32416	637.28442	-1171.2677	-356.12051	462.12628	-1127.17249	-425.65948	273.87378	-1136.86438	-472.48441	67.2325	-1098.30249	-518.04712	33.15287	-1066.63416	-325.35205	29.46264	-1065.13892	-311.90552	639.30579	-852.14386	-240.27985	474.34293	-877.65875	-353.22061	320.64014	-887.25079	-480.91763	150.25992	-940.67236	-532.73767	144.56137	-996.30457	-382.21884	49.46196	-950.68054	-370.83847	1671.32007	-1012.34735	NaN	NaN	NaN	NaN	NaN	NaN	NaN	NaN	NaN	NaN	NaN	NaN	NaN	NaN	NaN	NaN	NaN	NaN
81	0.8	-259.77628	1626.9751	-1049.2627	-282.53754	1624.71753	-917.92755	-378.49258	1566.40942	-1068.10522	-396.07535	1564.02539	-938.21649	-402.90042	1414.16687	-1020.97675	-448.26404	1106.31628	-1022.94397	-281.76978	1337.13721	-1004.04901	-241.12137	1170.34827	-1006.68317	-469.49173	1242.97546	-932.16858	-304.83533	1375.33875	-1163.74084	-297.19757	1178.84277	-1235.16089	-284.40277	1055.84961	-1244.28516	-255.70389	928.60162	-1235.87512	-245.10703	811.02179	-1201.47949	-249.87114	816.23792	-1256.97888	-230.97229	735.61853	-1243.81763	-347.92047	1360.7533	-851.26929	-360.40073	1138.79993	-779.66815	-346.33911	1026.29871	-767.08929	-327.87729	890.5083	-765.77539	-293.12717	796.82153	-801.05688	-327.07196	789.76221	-759.74872	-301.67194	719.48462	-770.25317	-284.34653	937.57758	-1125.92615	-303.9303	934.04913	-891.22919	-448.23834	967.80737	-1088.73499	-458.76096	968.20184	-939.89349	-346.39862	636.72052	-1171.76648	-351.82468	461.34427	-1127.60718	-423.55154	274.03372	-1136.9624	-472.27557	67.78613	-1098.41284	-518.18719	33.98915	-1066.49963	-325.13315	29.59728	-1065.25342	-295.08609	640.95618	-852.39697	-220.19891	476.92484	-878.62146	-325.38779	316.87622	-888.10431	-442.39359	139.08093	-941.8103	-492.82892	129.46504	-998.12457	-336.94977	45.5601	-949.87372	-357.04706	1671.68079	-1013.04578	NaN	NaN	NaN	NaN	NaN	NaN	NaN	NaN	NaN	NaN	NaN	NaN	NaN	NaN	NaN	NaN	NaN	NaN
82	0.81	-246.35303	1626.35571	-1048.72437	-269.5069	1623.90149	-917.43494	-365.08334	1565.91187	-1067.92639	-382.97827	1563.35474	-938.13208	-389.70035	1413.3833	-1020.72913	-434.8241	1105.59741	-1023.65692	-268.58868	1336.39124	-1003.84222	-227.82919	1169.57971	-1006.92175	-456.40857	1242.16199	-932.73724	-291.76746	1375.05762	-1163.38843	-281.70694	1179.18872	-1235.24353	-266.00073	1056.53333	-1244.10657	-233.60371	930.32227	-1234.62585	-219.34457	813.48517	-1199.33643	-224.12405	818.15857	-1254.79797	-201.0121	739.26416	-1241.2489	-335.09222	1359.73608	-851.17926	-350.21567	1137.73071	-779.98517	-337.8085	1025.04248	-767.51489	-322.06027	888.9223	-766.05688	-289.00009	794.55664	-801.09869	-323.33804	788.16125	-759.86633	-299.5712	717.27289	-769.84406	-271.2771	936.41211	-1126.25439	-290.19421	933.61847	-891.79492	-435.07202	967.07227	-1088.75598	-445.32574	967.50348	-940.0365	-337.95383	635.80481	-1171.57727	-347.68457	460.49747	-1127.68396	-421.42227	274.24738	-1137.10486	-472.32834	68.47478	-1098.7251	-518.05151	34.90784	-1066.56873	-325.0441	29.51758	-1065.30432	-278.05954	642.06122	-852.58453	-200.77203	479.10748	-879.49567	-297.6539	312.80676	-888.72137	-402.6095	127.71056	-942.68579	-452.11841	114.28078	-999.5694	-291.12808	42.16428	-948.68829	-344.15192	1670.33557	-1011.5578	NaN	NaN	NaN	NaN	NaN	NaN	NaN	NaN	NaN	NaN	NaN	NaN	NaN	NaN	NaN	NaN	NaN	NaN
